<?xml version="1.0" standalone="no"?>
<!DOCTYPE svg PUBLIC "-//W3C//DTD SVG 20010904//EN"
 "http://www.w3.org/TR/2001/REC-SVG-20010904/DTD/svg10.dtd">
<svg version="1.0" xmlns="http://www.w3.org/2000/svg"
 width="512.000000pt" height="512.000000pt" viewBox="0 0 512.000000 512.000000"
 preserveAspectRatio="xMidYMid meet">

<g transform="translate(0.000000,512.000000) scale(0.100000,-0.100000)"
fill="#000000" stroke="none">
<path d="M1204 5112 c-24 -16 -32 -53 -44 -203 -16 -197 -10 -371 13 -416 24
-46 59 -66 97 -58 38 8 57 36 64 98 3 26 9 68 12 93 l6 47 116 -7 c64 -4 117
-8 119 -9 1 -2 -6 -34 -16 -72 -20 -81 -14 -116 25 -134 84 -38 140 20 164
170 15 93 10 334 -8 366 -24 44 -105 42 -122 -3 -6 -14 -13 -56 -16 -95 l-7
-69 -36 0 c-20 0 -79 -3 -132 -6 l-97 -7 -7 64 c-12 106 -42 222 -61 236 -20
14 -53 17 -70 5z"/>
<path d="M3532 5068 c-6 -8 -12 -139 -14 -323 -6 -338 -3 -358 49 -371 32 -8
301 3 363 15 76 15 102 74 57 127 -27 31 -31 31 -203 19 l-111 -8 -6 184 c-7
254 -41 369 -107 369 -10 0 -22 -6 -28 -12z"/>
<path d="M2673 5035 c-21 -9 -35 -24 -40 -42 -4 -15 -8 -144 -8 -285 l0 -257
26 -27 c19 -18 33 -24 47 -20 30 10 60 80 67 156 3 36 8 85 11 109 l6 43 43
-65 c50 -73 78 -97 115 -97 33 0 33 0 124 108 43 50 82 92 86 92 4 0 10 -58
13 -128 10 -180 24 -212 95 -212 31 0 55 21 67 58 4 13 1 131 -6 264 -15 277
-18 288 -92 288 -40 0 -46 -4 -165 -126 -68 -70 -124 -125 -126 -123 -2 2 -39
58 -83 124 -103 155 -119 167 -180 140z"/>
<path d="M2045 5029 c-66 -5 -145 -12 -175 -16 -55 -8 -55 -9 -55 -43 0 -32 3
-36 48 -52 26 -10 92 -23 145 -29 53 -6 97 -11 98 -12 0 -1 -3 -40 -7 -87 -4
-47 -8 -142 -8 -212 -1 -115 1 -130 19 -148 27 -27 83 -27 112 2 21 21 21 26
15 213 -3 105 -9 198 -12 206 -5 13 11 15 104 15 96 -1 113 2 138 20 53 39 36
111 -32 140 -38 16 -187 17 -390 3z"/>
<path d="M872 4132 c-25 -16 -55 -87 -68 -162 -19 -108 -17 -346 6 -645 24
-318 34 -403 109 -1010 59 -467 95 -786 165 -1455 30 -281 32 -327 20 -341
-30 -34 -3 -99 42 -99 30 0 151 -30 429 -106 214 -59 291 -84 565 -189 210
-80 379 -125 471 -125 202 0 572 116 1049 330 96 43 221 93 277 110 l102 32
31 87 c66 181 119 461 140 737 5 77 10 412 10 745 1 980 10 1177 80 1678 34
240 36 289 16 317 -14 18 -35 19 -503 26 -268 3 -690 11 -938 17 -247 6 -598
11 -780 11 -181 0 -458 5 -615 10 -252 9 -359 16 -545 35 -27 3 -56 1 -63 -3z
m2758 -778 l45 -6 -3 -222 c-2 -121 -6 -223 -8 -226 -9 -9 -573 -21 -1117 -24
l-569 -3 -28 -47 c-56 -97 -62 -294 -10 -341 24 -22 106 -24 363 -7 144 9 352
10 753 5 305 -3 556 -9 558 -12 2 -3 -21 -166 -50 -361 -53 -349 -97 -710
-110 -903 l-7 -99 -106 -50 c-220 -103 -443 -189 -612 -235 l-171 -46 -36 18
c-21 10 -100 39 -177 65 -77 26 -230 85 -340 132 -110 47 -230 95 -266 107
-61 20 -67 25 -72 54 -12 68 -66 619 -61 625 4 6 288 3 357 -4 40 -4 67 -11
67 -18 0 -44 23 -188 35 -222 19 -51 51 -72 284 -190 l174 -87 96 11 c183 22
340 77 458 163 48 34 48 34 64 174 24 220 13 329 -38 350 -49 21 -182 35 -413
45 -140 6 -379 20 -530 31 -151 10 -344 22 -427 26 -147 6 -153 7 -153 27 0
42 -50 666 -65 811 -9 83 -24 214 -35 292 -11 79 -20 146 -20 150 0 5 357 8
793 9 515 0 820 5 872 12 80 11 417 8 505 -4z m387 -761 c-3 -10 -5 -4 -5 12
0 17 2 24 5 18 2 -7 2 -21 0 -30z m-270 -250 c-3 -10 -5 -4 -5 12 0 17 2 24 5
18 2 -7 2 -21 0 -30z m-10 -45 c-3 -8 -6 -5 -6 6 -1 11 2 17 5 13 3 -3 4 -12
1 -19z"/>
</g>
</svg>
