<?xml version="1.0" encoding="UTF-8" standalone="no"?>
<!-- Created with Inkscape (http://www.inkscape.org/) -->

<svg
   xmlns:dc="http://purl.org/dc/elements/1.1/"
   xmlns:cc="http://creativecommons.org/ns#"
   xmlns:rdf="http://www.w3.org/1999/02/22-rdf-syntax-ns#"
   xmlns:svg="http://www.w3.org/2000/svg"
   xmlns="http://www.w3.org/2000/svg"
   xmlns:sodipodi="http://sodipodi.sourceforge.net/DTD/sodipodi-0.dtd"
   xmlns:inkscape="http://www.inkscape.org/namespaces/inkscape"
   width="90mm"
   height="50mm"
   viewBox="0 0 90 50"
   id="svg4779"
   version="1.1"
   inkscape:version="0.91 r13725"
   sodipodi:docname="logo.svg">
  <defs
     id="defs3" />
  <sodipodi:namedview
     id="base"
     pagecolor="#ffffff"
     bordercolor="#666666"
     borderopacity="1.0"
     inkscape:pageopacity="0.0"
     inkscape:pageshadow="2"
     inkscape:zoom="1.2"
     inkscape:cx="18.75"
     inkscape:cy="90"
     inkscape:document-units="mm"
     inkscape:current-layer="layer1"
     showgrid="false"
     inkscape:window-width="1855"
     inkscape:window-height="1056"
     inkscape:window-x="65"
     inkscape:window-y="24"
     inkscape:window-maximized="1" />
  <metadata
     id="metadata4783">
    <rdf:RDF>
      <cc:Work
         rdf:about="">
        <dc:format>image/svg+xml</dc:format>
        <dc:type
           rdf:resource="http://purl.org/dc/dcmitype/StillImage" />
        <dc:title></dc:title>
      </cc:Work>
    </rdf:RDF>
  </metadata>
  <g
     inkscape:label="Layer 1"
     inkscape:groupmode="layer"
     id="layer1">
    <g
       style="display:inline;fill:#005596;fill-opacity:1;stroke:none"
       id="g4178"
       transform="matrix(0.15312872,0,0,0.1531287,-92.739897,-168.1198)">
      <path
         sodipodi:nodetypes="cccccccccccccccc"
         inkscape:connector-curvature="0"
         id="path6839-5-2"
         d="m 958.03242,1120.9234 c -30.35717,0.056 -60.02396,15.8007 -72.42736,44.2364 l -63.49366,141.8299 c -4.19992,6.9153 -7.9644,5.3299 -11.54479,0.1648 l -77.71546,-173.5163 c -0.17006,-0.1638 -0.3471,-0.3222 -0.52551,-0.4797 l -4.92554,-10.6202 -52.44507,-0.1647 14.98169,32.7228 103.06641,229.6526 c 12.38486,24.642 37.14416,20.2928 45.43396,0.7417 l 88.39783,-196.5821 c 13.26628,-29.9134 53.70634,-26.7759 65.80203,3.2148 45.35465,-11.8296 0,0 45.35465,-11.8296 -0.1823,-0.8489 -0.4022,-1.7157 -0.6617,-2.6004 -13.8843,-39.1102 -46.98177,-56.8295 -79.29748,-56.77 z"
         style="display:inline;opacity:1;fill:#005596;fill-opacity:1;stroke:none;stroke-width:0.9375px;stroke-linecap:butt;stroke-linejoin:miter;stroke-opacity:1" />
      <path
         sodipodi:nodetypes="cccccscccc"
         inkscape:connector-curvature="0"
         id="path7642-3-1"
         d="m 943.31043,1234.6176 -19.04217,42.5658 c 12.55336,6.0596 27.31964,7.1608 34.37974,6.9734 46.5313,0.031 46.07,70.1262 -0.32959,69.926 -15.50991,-0.3286 -28.32744,-7.8205 -34.6344,-25.3985 -45.72041,11.6057 0,0 -45.72041,11.6057 0,0 0.46507,3.1382 1.52242,6.042 5.45328,13.4911 25.53137,54.7705 78.95141,54.9499 112.77077,-6.0366 101.07157,-157.1694 -0.2948,-163.0664 -3.11778,-0.1137 -7.68407,0.8386 -14.8322,-3.5979 z"
         style="display:inline;opacity:1;fill:#005596;fill-opacity:1;stroke:none;stroke-width:0.9375px;stroke-linecap:butt;stroke-linejoin:miter;stroke-opacity:1" />
      <rect
         y="1122.179"
         x="1054.1241"
         height="280.13699"
         width="47.386692"
         id="rect5011-7"
         style="opacity:1;fill:#005596;fill-opacity:1;stroke:none;stroke-width:1.11715055;stroke-linecap:round;stroke-linejoin:round;stroke-miterlimit:4;stroke-dasharray:none;stroke-opacity:1" />
    </g>
  </g>
</svg>
